<?xml version="1.0" encoding="utf-8"?>
<!-- Generator: Adobe Illustrator 23.0.2, SVG Export Plug-In . SVG Version: 6.00 Build 0)  -->
<svg version="1.1" id="Layer_1" xmlns="http://www.w3.org/2000/svg" xmlns:xlink="http://www.w3.org/1999/xlink" x="0px" y="0px"
	 viewBox="0 0 1620 562" style="enable-background:new 0 0 1620 562;" xml:space="preserve">
<style type="text/css">
	.st0{fill:none;stroke:#FFFFFF;stroke-width:3;stroke-miterlimit:10;}
	.st1{fill:none;stroke:#FFFFFF;stroke-miterlimit:10;}
	.st2{fill:#FFFFFF;}
	.st3{fill:#C098D8;}
	.st4{fill:url(#SVGID_1_);}
</style>
<g>
	<path class="st0" d="M4.3,182.1l0.8-8.9c0,0,189.4-203.9,287.8,38.7s148.3-83.4,207.2,0c51.1,72.4,164,156,297.4,48.4
		c151.2-122,196.7-166.1,332.9,17.7s164.4-115.3,222.5-100.8c58,14.5,76.6-204.8,242.6,277.3v16.6"/>
	<circle class="st0" cx="321.1" cy="221.6" r="4"/>
	<circle class="st0" cx="729.8" cy="242.5" r="4"/>
	<circle class="st0" cx="1204.6" cy="177.3" r="4"/>
	<circle class="st0" cx="1020" cy="141.8" r="4"/>
	<circle class="st1" cx="416.3" cy="152.3" r="4"/>
	<circle class="st1" cx="259.9" cy="105.5" r="4"/>
	<circle class="st1" cx="614.6" cy="261.1" r="4"/>
	<circle class="st1" cx="1103" cy="121.6" r="4"/>
	<circle class="st1" cx="1300.5" cy="116" r="4"/>
	<circle class="st2" cx="404.2" cy="242.5" r="4"/>
	<circle class="st2" cx="188.5" cy="68" r="4"/>
	<circle class="st2" cx="547.2" cy="194.6" r="4"/>
	<circle class="st2" cx="1155" cy="265.5" r="4"/>
	<circle class="st2" cx="1122.8" cy="213.1" r="4"/>
	<circle class="st2" cx="1263.9" cy="209.1" r="4"/>
	<circle class="st2" cx="1465.4" cy="116.4" r="4"/>
	<circle class="st2" cx="100.7" cy="88.2" r="2.4"/>
	<circle class="st2" cx="357.4" cy="166.8" r="10.1"/>
	<circle class="st2" cx="509.8" cy="121.6" r="10.1"/>
	<circle class="st2" cx="673.4" cy="212.7" r="10.1"/>
	<circle class="st2" cx="963.6" cy="109.5" r="10.1"/>
	<circle class="st2" cx="1390" cy="77.3" r="10.1"/>
	<ellipse class="st2" cx="1223.1" cy="279.6" rx="28.6" ry="27.1"/>
	<circle class="st2" cx="789.1" cy="171.2" r="2.4"/>
	<path class="st2" d="M3.9,279.2v-97.5c0,0,190.2-184.6,288.6,70.1s159.6-84.6,202.3-53.3c72,52.8,107.2,257.3,261.2,132.9
		s209.6-241.2,345.8-48.2s206.4-83.8,264.4-68.6c58,15.2,63.7-298.8,229.7,207.3l-20.2,0.8L3.9,416.3V279.2z"/>
	<path class="st3" d="M3.8,516.7V222c0,0,212-225.7,310.3,16.9s133.8-48.4,207.2,0s143.5,166.9,297.4,48.4s196.7-166.1,332.9,17.7
		s164.4-115.3,222.5-100.8c58,14.5,76.6-204.8,242.6,277.3V531"/>
</g>
</svg>
