<?xml version="1.0" encoding="utf-8"?>
<!-- Generator: Adobe Illustrator 23.0.2, SVG Export Plug-In . SVG Version: 6.00 Build 0)  -->
<svg version="1.1" id="Layer_1" xmlns="http://www.w3.org/2000/svg" xmlns:xlink="http://www.w3.org/1999/xlink" x="0px" y="0px"
	 viewBox="0 0 1180 732" style="enable-background:new 0 0 1180 732;" xml:space="preserve">
<style type="text/css">
	.st0{fill:none;stroke:#FFFFFF;stroke-width:3;stroke-miterlimit:10;}
	.st1{fill:none;stroke:#FFFFFF;stroke-miterlimit:10;}
	.st2{fill:#FFFFFF;}
	.st3{fill:#C098D8;}
	.st4{fill:url(#SVGID_1_);}
</style>
<g>
	<g>
		<path class="st2" d="M663.5,431.8c0,5.8,0,11.5,0,17.3c0,6.4-4.4,10.8-10.8,10.7c-43.5-0.6-81.8-15-114.4-43.9
			c-26.6-23.6-44.1-53-52.8-87.5c-3.4-13.4-5-27.1-5-40.9c0-6.2,4.1-10.5,10.3-10.6c11.7-0.1,23.4-0.1,35.1,0
			c6.4,0.1,10.5,4.4,10.5,10.8c0.1,12,1.9,23.6,5.6,35c1.4,4.4,0.6,8.2-2.8,11.5c-6.9,6.9-13.8,13.9-20.7,20.8
			c-0.8,0.8-1.1,1.4-0.5,2.5c15,28.1,36.5,49.7,64.6,64.7c1.4,0.8,2.1,0.5,3.2-0.6c6.8-6.9,13.6-13.7,20.4-20.5
			c3.2-3.2,6.9-4.2,11.3-2.8c11.4,3.7,23.2,5.6,35.2,5.6c6.6,0,10.7,4.3,10.7,10.9C663.5,420.4,663.5,426.1,663.5,431.8z"/>
	</g>
	<g>
		<path class="st2" d="M542.8,611.1c-0.4,0-0.8,0-1.2-0.1c-17.1-1.8-34-5.3-50.3-10.6c-6.1-2-9.4-8.5-7.4-14.5
			c2-6.1,8.5-9.4,14.5-7.4c14.8,4.8,30.1,8,45.6,9.6c6.3,0.7,11,6.3,10.3,12.7C553.6,606.7,548.6,611.1,542.8,611.1z M591.7,611
			c-5.8,0-10.9-4.4-11.5-10.3c-0.7-6.3,3.9-12,10.3-12.7c15.5-1.6,30.8-4.9,45.5-9.7c6.1-2,12.6,1.3,14.6,7.4
			c2,6.1-1.3,12.6-7.4,14.6c-16.3,5.3-33.2,8.9-50.3,10.7C592.5,611,592.1,611,591.7,611z M450,581.1c-2,0-3.9-0.5-5.8-1.5
			c-14.8-8.6-28.8-18.7-41.6-30.2c-4.7-4.3-5.1-11.6-0.9-16.3c4.3-4.7,11.6-5.1,16.3-0.9c11.6,10.4,24.3,19.6,37.7,27.4
			c5.5,3.2,7.4,10.3,4.2,15.8C457.9,579,454,581.1,450,581.1z M684.4,580.9c-4,0-7.9-2.1-10-5.8c-3.2-5.5-1.3-12.6,4.2-15.8
			c13.4-7.8,26.1-17,37.6-27.4c4.7-4.3,12-3.9,16.3,0.8c4.3,4.7,3.9,12-0.8,16.3c-12.7,11.5-26.7,21.7-41.5,30.3
			C688.3,580.4,686.4,580.9,684.4,580.9z M377.5,516c-3.6,0-7.1-1.6-9.3-4.7c-10.1-13.9-18.8-28.8-25.8-44.5
			c-2.6-5.8,0-12.7,5.8-15.3c5.8-2.6,12.7,0,15.3,5.8c6.3,14.2,14.2,27.7,23.4,40.3c3.8,5.2,2.6,12.4-2.5,16.1
			C382.3,515.3,379.9,516,377.5,516z M756.7,515.6c-2.4,0-4.7-0.7-6.8-2.2c-5.2-3.8-6.3-11-2.6-16.1c9.2-12.6,17-26.2,23.3-40.3
			c2.6-5.8,9.4-8.4,15.2-5.8c5.8,2.6,8.4,9.4,5.8,15.2c-7,15.7-15.6,30.6-25.7,44.5C763.8,514,760.3,515.6,756.7,515.6z
			 M337.7,427.1c-5.3,0-10.1-3.7-11.3-9.1c-3.6-16.7-5.4-33.9-5.4-51.1c0-6.4,5.1-11.6,11.5-11.6c0,0,0,0,0,0
			c6.4,0,11.5,5.2,11.5,11.5c0,15.6,1.7,31.2,4.9,46.3c1.3,6.2-2.6,12.4-8.9,13.7C339.3,427,338.5,427.1,337.7,427.1z M796.4,426.6
			c-0.8,0-1.6-0.1-2.4-0.3c-6.2-1.3-10.2-7.4-8.9-13.7c3.2-15.1,4.8-30.7,4.8-46.3v-1c0-6.4,5.2-11.5,11.5-11.5
			c6.4,0,11.5,5.2,11.5,11.5v1c0,17.2-1.8,34.4-5.3,51.1C806.5,422.9,801.7,426.6,796.4,426.6z M337.5,329.6c-0.8,0-1.6-0.1-2.4-0.2
			c-6.2-1.3-10.2-7.4-8.9-13.7c3.5-16.8,8.8-33.3,15.8-48.9c2.6-5.8,9.4-8.5,15.2-5.9c5.8,2.6,8.5,9.4,5.9,15.2
			c-6.3,14.2-11.1,29.1-14.3,44.3C347.7,325.9,342.9,329.6,337.5,329.6z M796.2,328.2c-5.3,0-10.1-3.7-11.3-9.1
			c-3.3-15.2-8.2-30.1-14.6-44.2c-2.6-5.8,0-12.7,5.8-15.3c5.8-2.6,12.7,0,15.3,5.8c7,15.6,12.5,32.1,16.1,48.8
			c1.3,6.2-2.6,12.4-8.9,13.7C797.8,328.1,797,328.2,796.2,328.2z M377,240.5c-2.4,0-4.7-0.7-6.8-2.2c-5.2-3.7-6.3-11-2.6-16.1
			c10.1-13.9,21.6-26.7,34.3-38.3c4.7-4.3,12-3.9,16.3,0.8c4.3,4.7,3.9,12-0.8,16.3c-11.5,10.4-22,22.1-31.1,34.7
			C384.1,238.9,380.5,240.5,377,240.5z M756.2,239.4c-3.6,0-7.1-1.6-9.3-4.7c-9.2-12.5-19.7-24.1-31.3-34.5
			c-4.8-4.3-5.2-11.6-0.9-16.3c4.2-4.8,11.5-5.2,16.3-0.9c12.8,11.4,24.4,24.2,34.5,38.1c3.8,5.1,2.7,12.4-2.5,16.1
			C761,238.6,758.6,239.4,756.2,239.4z M449.2,175.1c-4,0-7.8-2.1-10-5.7c-3.2-5.5-1.3-12.6,4.2-15.8c14.8-8.6,30.6-15.7,46.9-21.1
			c6.1-2,12.6,1.3,14.6,7.4c2,6.1-1.3,12.6-7.4,14.6c-14.7,4.8-29,11.3-42.5,19.1C453.2,174.6,451.2,175.1,449.2,175.1z
			 M683.5,174.4c-2,0-3.9-0.5-5.7-1.5c-13.5-7.7-27.8-14.1-42.6-18.8c-6.1-1.9-9.4-8.4-7.5-14.5c1.9-6.1,8.5-9.4,14.5-7.5
			c16.3,5.2,32.2,12.2,47,20.8c5.5,3.2,7.4,10.2,4.3,15.8C691.4,172.3,687.6,174.4,683.5,174.4z M541.8,144.8
			c-5.8,0-10.8-4.4-11.5-10.3c-0.7-6.3,3.9-12,10.3-12.7c17-1.8,34.5-1.9,51.4-0.2c6.3,0.6,11,6.3,10.3,12.7
			c-0.6,6.4-6.3,11-12.7,10.3c-15.3-1.5-31.2-1.5-46.6,0.1C542.6,144.7,542.2,144.8,541.8,144.8z"/>
	</g>
	<g>
		<path class="st2" d="M565.6,559.2c-1.6,0-3.1-0.3-4.5-0.9c-1.4,0.5-3,0.8-4.6,0.7c-15.2-0.7-30.3-3.2-44.8-7.4
			c-6.1-1.8-9.6-8.2-7.9-14.3c1.8-6.1,8.2-9.6,14.3-7.9c12.8,3.7,26,5.9,39.4,6.5c1.4,0.1,2.8,0.4,4,0.9c1.2-0.5,2.6-0.7,4-0.7
			c13.4,0,26.7-1.6,39.6-4.7c6.2-1.5,12.4,2.3,13.9,8.5c1.5,6.2-2.3,12.4-8.5,13.9C596,557.3,580.9,559.2,565.6,559.2
			C565.6,559.2,565.6,559.2,565.6,559.2z M647.9,539.2c-4.2,0-8.2-2.3-10.3-6.2c-2.9-5.7-0.7-12.6,4.9-15.6c2.4-1.2,4.7-2.5,7-3.8
			c5.5-3.2,12.6-1.3,15.8,4.2s1.3,12.6-4.2,15.8c-2.6,1.5-5.3,3-8,4.4C651.5,538.8,649.7,539.2,647.9,539.2z M475.8,535.2
			c-2,0-3.9-0.5-5.8-1.5c-2.6-1.5-5.2-3.1-7.8-4.8c-5.4-3.4-6.9-10.6-3.5-16c3.4-5.4,10.6-6.9,16-3.5c2.2,1.4,4.5,2.8,6.8,4.2
			c5.5,3.2,7.4,10.2,4.2,15.8C483.6,533.2,479.8,535.2,475.8,535.2z M689.5,509.5c-3,0-6.1-1.2-8.4-3.6c-4.4-4.6-4.2-11.9,0.4-16.3
			c9.7-9.2,18.2-19.6,25.4-30.8c0.8-1.2,1.7-2.2,2.8-3c0.2-1.3,0.7-2.6,1.4-3.8c6.7-11.6,12-23.9,15.7-36.7
			c1.8-6.1,8.2-9.6,14.3-7.8c6.1,1.8,9.6,8.2,7.8,14.3c-4.3,14.6-10.3,28.6-17.9,41.8c-0.8,1.4-1.9,2.6-3.1,3.5
			c-0.3,1.5-0.8,3-1.7,4.3c-8.2,12.7-17.9,24.5-28.9,35C695.3,508.4,692.4,509.5,689.5,509.5z M435.5,503.7c-3,0-6.1-1.2-8.3-3.6
			c-10.5-11-19.7-23.2-27.3-36.3c-0.8-1.4-1.3-2.9-1.5-4.4c-1.2-1-2.2-2.2-2.9-3.6c-7-13.5-12.4-27.8-16-42.5
			c-1.5-6.2,2.3-12.4,8.5-14c6.2-1.5,12.4,2.3,14,8.5c3.2,12.9,7.9,25.5,14,37.4c0.6,1.3,1,2.6,1.2,3.9c1,0.8,1.9,1.9,2.6,3.1
			c6.7,11.5,14.8,22.3,24,31.9c4.4,4.6,4.2,11.9-0.4,16.3C441.3,502.6,438.4,503.7,435.5,503.7z M745,388c-0.2,0-0.4,0-0.6,0
			c-6.4-0.3-11.3-5.7-11-12.1c0.1-2.7,0.2-5.3,0.2-8v-0.8c0-6.4,5.2-11.5,11.5-11.5c6.4,0,11.5,5.2,11.5,11.5v0.8
			c0,3-0.1,6.1-0.2,9.1C756.2,383.2,751.1,388,745,388z M385.7,379.6c-6.4,0-11.5-5-11.5-11.4v-0.4c0-2.9,0.1-5.8,0.2-8.7
			c0.3-6.4,5.8-11.4,12.1-11c6.4,0.3,11.3,5.7,11,12.1c-0.1,2.5-0.2,5.1-0.2,7.7C397.2,374.3,392.1,379.6,385.7,379.6z M740,336.3
			c-5.2,0-9.9-3.5-11.2-8.8c-3.2-12.9-7.9-25.5-14.1-37.3c-0.6-1.3-1.1-2.6-1.2-3.9c-1-0.8-1.9-1.9-2.6-3.1
			c-6.7-11.5-14.8-22.2-24.1-31.9c-4.4-4.6-4.3-11.9,0.3-16.3c4.6-4.4,11.9-4.3,16.3,0.3c10.5,10.9,19.7,23.1,27.4,36.2
			c0.8,1.4,1.3,2.9,1.5,4.4c1.2,1,2.2,2.2,2.9,3.6c7,13.5,12.4,27.7,16,42.5c1.5,6.2-2.3,12.5-8.4,14
			C741.8,336.2,740.9,336.3,740,336.3z M392.8,329.2c-1.1,0-2.2-0.1-3.2-0.5c-6.1-1.8-9.6-8.2-7.9-14.3
			c4.2-14.6,10.2-28.6,17.8-41.8c0.8-1.4,1.9-2.6,3.1-3.5c0.3-1.5,0.8-3,1.7-4.3c8.2-12.8,17.9-24.6,28.8-35.1
			c4.6-4.4,11.9-4.3,16.3,0.3c4.4,4.6,4.3,11.9-0.3,16.3c-9.6,9.2-18.2,19.6-25.4,30.8c-0.8,1.2-1.7,2.2-2.8,3
			c-0.2,1.3-0.7,2.6-1.4,3.9c-6.7,11.6-11.9,23.9-15.6,36.7C402.4,325.9,397.8,329.2,392.8,329.2z M662.1,227.9
			c-2.1,0-4.3-0.6-6.2-1.8c-2.2-1.4-4.5-2.8-6.8-4.2c-5.5-3.2-7.4-10.2-4.3-15.8c3.2-5.5,10.2-7.4,15.8-4.3c2.6,1.5,5.2,3.1,7.8,4.7
			c5.4,3.4,6.9,10.6,3.5,16C669.6,226,665.9,227.9,662.1,227.9z M475.1,224c-4,0-7.8-2.1-10-5.7c-3.2-5.5-1.3-12.6,4.2-15.8
			c2.6-1.5,5.3-3,8-4.4c5.7-2.9,12.6-0.7,15.6,4.9c2.9,5.7,0.7,12.6-4.9,15.6c-2.4,1.2-4.7,2.5-7,3.9
			C479.1,223.5,477.1,224,475.1,224z M615.5,206.8c-1.1,0-2.1-0.1-3.2-0.5c-12.8-3.7-26-5.9-39.4-6.4c-1.4-0.1-2.8-0.4-4-0.9
			c-1.2,0.5-2.6,0.7-4,0.7c-13.4,0-26.7,1.7-39.6,4.8c-6.2,1.5-12.4-2.3-14-8.5c-1.5-6.2,2.3-12.4,8.5-14c14.7-3.6,29.8-5.4,45-5.5
			c0,0,0,0,0,0c1.6,0,3.1,0.3,4.5,0.9c1.4-0.5,3-0.8,4.6-0.7c15.2,0.7,30.3,3.1,44.8,7.3c6.1,1.8,9.7,8.2,7.9,14.3
			C625.1,203.5,620.5,206.8,615.5,206.8z"/>
	</g>
</g>
</svg>
