<?xml version="1.0" encoding="utf-8"?>
<!-- Generator: Adobe Illustrator 23.0.2, SVG Export Plug-In . SVG Version: 6.00 Build 0)  -->
<svg version="1.1" id="Layer_1" xmlns="http://www.w3.org/2000/svg" xmlns:xlink="http://www.w3.org/1999/xlink" x="0px" y="0px"
	 viewBox="0 0 516.5 655" style="enable-background:new 0 0 516.5 655;" xml:space="preserve">
<style type="text/css">
	.st0{fill:#FFFFFF;}
</style>
<g>
	<g>
		<path class="st0" d="M209.9,83.5c53.2-13.4,99.5-11.7,93.2,43.7c-1.5,12.7,12.6,22.5,19.1,33.6c5,8.6,5.6,16.9-3.8,22.3
			c-10,5.8-16.2-1.1-20.8-9c-11.9-20.5-24.2-40.7-34.9-61.8c-6.8-13.5-16.1-18.2-30.9-17.5c-22.2,1.1-44.6,0-66.8,0.4
			c-22.6,0.4-27.2,8.4-16.1,28.1c31.8,56.1,63.4,112.5,96.4,167.9c13.3,22.4,13.1,41.8-0.1,64.2c-32.6,54.9-63.7,110.6-95.3,166.1
			c-11.9,21-10.1,25.5,13.2,29.6c9.4,1.7,14.8,5.7,14,15.2c-0.8,10.2-8.3,11.8-17,12.1c-35.2,1.4-61.6-44.3-43.8-76.3
			c31.7-57,37.9-155.5,103.1-157.6c16.9-0.5,29-29,19.8-44.4c-32.2-54.3-65.5-79.8-96.6-134.7C120.7,127,124.8,81,168.9,80.6
			C181.1,80.5,197.6,83.5,209.9,83.5z"/>
		<path class="st0" d="M230.5,578.2c-10.3,0-18.2,0.3-26.1-0.1c-7.6-0.3-11.9-5.1-12.2-12.4c-0.4-8.3,3.9-13.5,12.6-14.3
			c2.1-0.2,4.4-0.6,6.4-0.2c33.6,7.4,49.5-11.1,64-38.5c30.8-58.2,64.5-114.9,97.7-171.8c7.5-12.8,8.2-23.2-0.1-35.6
			c-8.7-13.1-15.9-27.2-23.8-40.8c-5-8.6-5.6-17,3.9-22.2c8.3-4.5,7.5,20.6,12,28.5c10.6,18.7,29.3,16,39.5,35
			c6.6,12.3-9.2,23.4-16,35.3c-40.7,71.6-82,139.3-123,210.8C253.6,572.7,249.1,580.1,230.5,578.2z"/>
		<path class="st0" d="M349.2,212.5c-0.8,9.2-6,13.9-14,13.6c-7.8-0.4-13.2-5.2-12.8-13.9c0.4-8.6,5.9-13.3,13.8-13
			C344.1,199.5,348.9,204.7,349.2,212.5z"/>
		<path class="st0" d="M305.3,429.2c-0.8,9.2-40.6,67.5-48.6,67.2c-7.8-0.4,23-38.1,23.4-46.8c0.4-8.6,4.3-34,12.2-33.7
			C300.2,416.1,305,421.4,305.3,429.2z"/>
	</g>
</g>
</svg>
