<svg id="Layer_1" data-name="Layer 1" xmlns="http://www.w3.org/2000/svg" viewBox="0 0 245.48 416.86"><defs><style>.cls-1{fill:#fff;}</style></defs><title>desliza1</title><path class="cls-1" d="M280.57,530.16c-44.2,11.15-82.67,9.73-77.4-36.31,1.21-10.55-10.47-18.68-15.87-27.94-4.14-7.1-4.67-14.05,3.13-18.53,8.32-4.78,13.48.9,17.31,7.48,9.87,17,20.11,33.82,29,51.33,5.68,11.17,13.34,15.13,25.63,14.53,18.47-.9,37,0,55.52-.29,18.77-.32,22.62-6.94,13.34-23.31-26.45-46.62-52.67-93.39-80-139.46-11-18.59-10.91-34.74.11-53.28,27.07-45.56,52.92-91.85,79.11-137.94,9.9-17.43,8.36-21.15-10.93-24.59-7.85-1.4-12.28-4.7-11.62-12.64.7-8.45,6.9-9.79,14.14-10.09,29.25-1.2,51.15,36.79,36.36,63.36-26.36,47.35-31.5,129.14-85.66,130.85-14,.44-24,24.1-16.46,36.91,26.72,45.08,54.39,66.25,80.24,111.84,18.11,31.95,14.7,70.2-21.88,70.51C304.46,532.68,290.72,530.16,280.57,530.16Z" transform="translate(-117.64 -119.09)"/><path class="cls-1" d="M263.39,119.37c8.54,0,15.11-.22,21.66.06,6.33.27,9.88,4.19,10.15,10.27.3,6.92-3.23,11.22-10.45,11.84a18.53,18.53,0,0,1-5.35.13c-27.9-6.1-41.1,9.2-53.16,32-25.59,48.34-53.55,95.44-81.17,142.68-6.19,10.59-6.8,19.28.06,29.56,7.24,10.86,13.16,22.6,19.76,33.9,4.17,7.15,4.61,14.16-3.21,18.46-6.86,3.76-6.22-17.11-10-23.7-8.84-15.5-24.36-13.3-32.78-29-5.44-10.19,7.69-19.42,13.32-29.33,33.83-59.45,68.09-115.71,102.12-175C244.25,123.92,248,117.72,263.39,119.37Z" transform="translate(-117.64 -119.09)"/><path class="cls-1" d="M164.85,423c.65-7.67,5-11.58,11.63-11.28s11,4.29,10.59,11.58c-.35,7.13-4.87,11.08-11.44,10.79S165.1,429.49,164.85,423Z" transform="translate(-117.64 -119.09)"/><path class="cls-1" d="M201.32,243.11c.66-7.67,33.74-56.07,40.34-55.77s-19.09,31.61-19.45,38.9c-.35,7.14-3.54,28.25-10.11,28S201.57,249.57,201.32,243.11Z" transform="translate(-117.64 -119.09)"/></svg>