<?xml version="1.0" encoding="utf-8"?>
<!-- Generator: Adobe Illustrator 23.0.2, SVG Export Plug-In . SVG Version: 6.00 Build 0)  -->
<svg version="1.1" id="Layer_1" xmlns="http://www.w3.org/2000/svg" xmlns:xlink="http://www.w3.org/1999/xlink" x="0px" y="0px"
	 viewBox="0 0 1137 1261" style="enable-background:new 0 0 1137 1261;" xml:space="preserve">
<style type="text/css">
	.st0{fill:#FFFFFF;}
</style>
<g>
	<path class="st0" d="M1020,444.71c0,136.63,0,273.26,0,409.88c-3.39,2.87-2.62,7.12-3.11,10.73c-4.05,29.53-13.06,57.61-27.96,83.2
		c-49.8,85.54-124.58,130.74-223.68,131.8c-118.03,1.27-236.09,0.38-354.14,0.26c-43.73-0.05-85.54-9.41-123.36-31.49
		c-86.13-50.29-130.48-125.97-131.19-225.75c-0.84-116.35-0.22-232.72-0.18-349.08c0.01-20.84,1.43-41.65,6.91-61.79
		c28.42-104.59,95.81-168.33,201.71-191.38c5.82-1.27,12.17-0.32,17.39-4.1c136.07,0,272.13,0,408.2,0
		c3.91,3.25,8.89,2.32,13.3,2.98c100.97,15.02,182.67,88.81,208.09,187.56C1015.17,419.87,1015.11,432.81,1020,444.71z
		 M588.18,1046.89c58.18,0,116.37-0.03,174.55,0.01c24.33,0.02,48.31-2.87,71.35-10.62c92.79-31.2,151.94-113.29,152.13-211.23
		c0.22-117.49,0.06-234.98,0.04-352.47c0-23.75-3.03-47.17-10.59-69.67c-31.2-92.79-113.29-151.94-211.23-152.13
		c-117.49-0.22-234.98-0.06-352.47-0.04c-23.75,0-47.17,3.03-69.67,10.59c-92.46,31.09-151.81,112.96-152.1,210.39
		c-0.35,118.05-0.14,236.1-0.04,354.16c0.02,30.94,5.1,61.16,18.47,89.16c41.26,86.34,110.26,130.4,205.85,131.7
		C472.37,1047.53,530.28,1046.89,588.18,1046.89z"/>
	<path class="st0" d="M230.59,648.3c0-58.19-0.06-116.38,0.02-174.58c0.11-80.56,46.13-145.85,121.93-172.98
		c19.23-6.88,39.22-9.52,59.57-9.52c117.23-0.02,234.45-0.11,351.68,0.02c87.38,0.1,157.76,55.92,177.85,140.99
		c3.17,13.41,4.17,27.18,4.17,41c-0.04,116.95,0.05,233.89-0.04,350.84c-0.06,80.46-46.26,145.81-122.08,172.88
		c-17.6,6.28-35.9,9.2-54.53,9.33c-33.73,0.24-67.47,0.19-101.2,0.07c-12.96-0.04-20.43-7.75-19.12-19.08
		c1.05-9.06,8.13-14.55,19.43-14.58c32.05-0.09,64.1-0.1,96.14-0.01c23.71,0.07,46.45-4.48,67.41-15.57
		c48.76-25.81,75.72-66.53,79.73-121.52c1.55-21.26,0.48-42.71,0.49-64.07c0.03-99.8,0.16-199.6-0.04-299.39
		c-0.14-72.1-48.52-130.98-118.24-144.56c-9.96-1.94-20.03-2.65-30.17-2.64c-116.95,0.03-233.89-0.06-350.84,0.05
		c-84.6,0.08-148.28,63.58-148.38,148.04c-0.14,117.23-0.15,234.45,0,351.68c0.11,84.07,63.68,147.64,147.65,147.94
		c31.2,0.11,62.41,0.01,93.61,0.02c2.53,0,5.08-0.13,7.58,0.17c9.24,1.09,15.87,8.19,15.84,16.74c-0.03,8.56-6.71,16.64-15.93,16.51
		c-44.91-0.67-90.2,4.85-134.67-3.04c-65.64-11.64-110.58-50.34-135.88-111.78c-8.87-21.55-12.01-44.31-11.99-67.55
		C230.62,765.24,230.59,706.77,230.59,648.3z"/>
	<path class="st0" d="M820.99,644.93c-1.11,116.68-81.39,212.87-190.12,232.63c-121.57,22.1-238.25-52.73-268.35-172.85
		c-14.59-58.23-7.01-114.15,21.3-167.16c5.85-10.95,15-14.68,24.11-10.09c8.94,4.51,11.57,14.34,5.87,25.52
		c-10.13,19.86-17.81,40.43-21.46,62.52c-8.73,52.89,1.8,101.69,32.04,145.75c29.15,42.48,69.13,70.69,119.61,81.2
		c79.58,16.57,147.65-6.19,198.72-69.27c69.1-85.36,57.31-204.15-25.97-275.72c-48.22-41.44-104.93-55.09-167.51-43.62
		c-15.21,2.79-29.81,7.63-43.81,14.28c-3.28,1.56-6.67,2.93-10.12,4.07c-8.93,2.94-17.79-0.64-21.27-8.41
		c-3.61-8.08-0.29-17.81,8.29-22.1c8.51-4.26,17.16-8.46,26.16-11.44c82.01-27.14,158.28-15.97,225.96,38.23
		C791.96,514.52,819.53,576.3,820.99,644.93z"/>
	<path class="st0" d="M739.98,648.94c-0.11,83.4-68.33,151.6-151.72,151.66c-83.66,0.06-152.3-68.8-151.87-152.35
		c0.43-83.49,68.85-151.51,152.14-151.24C671.98,497.29,740.09,565.61,739.98,648.94z M588.18,766.86
		c64.8,0.01,117.91-53,118.06-117.83c0.14-64.78-52.77-117.99-117.61-118.27c-65.09-0.28-118.61,53.14-118.48,118.25
		C470.27,713.84,523.37,766.85,588.18,766.86z"/>
	<path class="st0" d="M809.24,363.54c35.04-0.21,63.76,28.04,64.22,63.16c0.46,35.12-28.28,64.45-63.59,64.89
		c-34.48,0.43-64.57-29.56-64.45-64.25C745.53,392.54,774.33,363.76,809.24,363.54z M810.02,397.28
		c-16.92-0.19-30.84,13.39-30.85,30.12c-0.02,16.17,13.67,30.06,29.96,30.41c16.25,0.36,30.23-13.15,30.56-29.52
		C840.04,411.2,826.9,397.47,810.02,397.28z"/>
	<path class="st0" d="M440.3,474.64c9.18-0.18,16.61,6.88,16.92,16.08c0.32,9.36-8.08,18.04-17.35,17.92
		c-8.78-0.11-16.68-8.01-16.74-16.76C423.08,482.97,431.19,474.81,440.3,474.64z"/>
	<path class="st0" d="M588.01,1006.3c-8.67-0.12-16.56-8.07-16.59-16.73c-0.02-8.96,8.48-17.19,17.36-16.8
		c8.75,0.39,16.41,8.52,16.17,17.15C604.7,998.65,596.67,1006.42,588.01,1006.3z"/>
</g>
</svg>
