<?xml version="1.0" encoding="utf-8"?>
<!-- Generator: Adobe Illustrator 23.0.2, SVG Export Plug-In . SVG Version: 6.00 Build 0)  -->
<svg version="1.1" id="Layer_1" xmlns="http://www.w3.org/2000/svg" xmlns:xlink="http://www.w3.org/1999/xlink" x="0px" y="0px"
	 viewBox="0 0 476 474" style="enable-background:new 0 0 476 474;" xml:space="preserve">
<style type="text/css">
	.st0{fill:#FAA51A;}
	.st1{fill:#3B459C;}
	.st2{font-family:'BOOKMARK';}
	.st3{font-size:121.343px;}
	.st4{letter-spacing:5;}
	.st5{fill:#F16363;}
	.st6{fill:#6AC9DF;}
</style>
<circle class="st0" cx="331.92" cy="270.35" r="10.51"/>
<circle class="st0" cx="109.41" cy="75.6" r="10.51"/>
<g>
	<g>
		<g>
			<text transform="matrix(1 0 0 1 55.1467 396.4506)" class="st1 st2 st3 st4">GEMMAZ</text>
		</g>
	</g>
	<g>
		<path class="st0" d="M395.05,364.78c0-2.67-2.17-4.84-4.84-4.84c-0.17,0-0.33,0.03-0.5,0.05c-0.31-0.03-0.5-0.03-0.5-0.03h-83.75
			c-0.01,0-0.02,0-0.03,0.01c-0.08,0-0.16-0.02-0.24-0.02c-1.76,0-3.29,0.95-4.14,2.36c-0.67,0.96-0.7,1.92-0.69,2.3
			c0,0.06-0.02,0.12-0.02,0.18c0,0.08,0.02,0.16,0.02,0.25c-0.07,1.02,0.26,1.82,0.79,2.45c0.87,1.29,2.34,2.15,4.02,2.15
			c0.18,0,0.35-0.03,0.53-0.05c0.18,0.03,0.28,0.04,0.28,0.04h84.04c0.06,0,0.12,0.02,0.18,0.02c2.11,0,3.89-1.36,4.55-3.25
			c0.31-0.69,0.3-1.25,0.28-1.48C395.04,364.85,395.05,364.81,395.05,364.78z"/>
		<path class="st0" d="M145.97,351.04c-0.07,0-0.14,0.02-0.22,0.02c-0.06,0-0.09,0-0.09,0H79.23c-0.06,0-0.12-0.02-0.18-0.02
			c-2.67,0-4.84,2.17-4.84,4.84c0,2.67,2.17,4.84,4.84,4.84c0.11,0,0.22-0.03,0.33-0.03c0.06,0.01,0.1,0.02,0.1,0.02h66.31
			c0.06,0,0.12,0.02,0.18,0.02s0.12-0.02,0.18-0.02h0.31c0.03-0.01,0.06-0.03,0.09-0.04c2.4-0.29,4.26-2.31,4.26-4.78
			C150.81,353.21,148.64,351.04,145.97,351.04z"/>
		<path class="st0" d="M252.83,386.79c-0.17,0-0.33,0.03-0.5,0.05c-0.31-0.03-0.5-0.03-0.5-0.03h-22.98h-4.59h-11.36
			c-0.05,0.01-0.09,0.02-0.13,0.03c-0.15-0.01-0.3-0.05-0.46-0.05c-2.67,0-4.84,2.17-4.84,4.84c0,2.67,2.17,4.84,4.84,4.84
			c0.25,0,0.49-0.04,0.73-0.07c0.25,0.04,0.4,0.06,0.4,0.06h9.98h5.87h23.39c0.06,0,0.12,0.02,0.18,0.02c2.11,0,3.89-1.36,4.55-3.25
			c0.31-0.69,0.3-1.25,0.28-1.48c0-0.04,0.01-0.07,0.01-0.11C257.68,388.95,255.51,386.79,252.83,386.79z"/>
	</g>
</g>
<g>
	<g>
		<polygon class="st5" points="213.07,100.09 252.74,48.64 226.25,108.19 		"/>
		<polygon class="st5" points="228.25,108.99 234.94,110.3 254.58,77.89 253.54,52.18 		"/>
		<polygon class="st5" points="237.25,110.67 256.02,114.3 254.66,81.9 		"/>
		<polygon class="st5" points="258.22,114.43 272.38,111.69 255.77,53.91 		"/>
		<polygon class="st5" points="213.39,102.84 225.68,110.37 229.51,156.91 		"/>
		<polygon class="st5" points="227.91,111.13 255.48,116.52 241.52,144.48 228.89,122.91 		"/>
		<polygon class="st5" points="271.19,114.3 257.99,116.67 237.3,157.95 		"/>
		<polygon class="st5" points="229.27,127.8 240.43,146.89 232.24,163.46 		"/>
	</g>
</g>
<g>
	<polygon class="st1" points="113.53,141.62 141.78,96.37 142.59,143.21 	"/>
	<polygon class="st1" points="143.94,95.65 177.72,130 144.67,142.66 	"/>
	<polygon class="st1" points="146.21,94.88 198.29,109 179.61,128.92 	"/>
	<polygon class="st1" points="199.58,110.59 231.35,191.61 212.46,212.13 200.65,182.12 205.48,153.2 194.9,115.7 	"/>
	<polygon class="st1" points="180.79,130.78 193.18,117.49 203.33,153.38 199.24,178.15 	"/>
	<polygon class="st1" points="145.15,144.84 178.88,131.86 210.01,211.92 172.08,188.48 	"/>
	<polygon class="st1" points="149.02,155.17 170.51,189.99 209.93,214.28 176.59,226.56 	"/>
	<polygon class="st1" points="113.02,143.78 142.13,145.32 157.59,214.36 144.11,224.36 	"/>
	<polygon class="st1" points="146.38,154.43 174.46,226.98 146.6,225.01 159.82,215.22 	"/>
	<polygon class="st1" points="206.97,241.92 212.84,214.89 228.76,197.55 	"/>
	<polygon class="st1" points="178.04,228.34 210.5,216.32 203.68,247.58 	"/>
	<polygon class="st1" points="150.16,227.43 175.63,229.14 198.25,246.15 	"/>
</g>
<g>
	<polygon class="st6" points="259.32,148.71 296.59,127.93 277.96,145.79 	"/>
	<polygon class="st6" points="302.43,125.22 303.98,159.14 280.19,146.56 	"/>
	<polygon class="st6" points="304.83,132.01 318.44,179.7 306.08,160.34 	"/>
	<polygon class="st6" points="305.65,163.52 319.39,184.9 306.12,183.7 278.6,241.01 	"/>
	<polygon class="st6" points="319.84,187.08 307.17,185.84 274.46,254.66 289.05,275.91 	"/>
	<polygon class="st6" points="272.96,256.17 287.75,277.76 245.72,295.19 	"/>
	<polygon class="st6" points="271.14,254.34 244.15,293.57 246.49,241.44 	"/>
	<polygon class="st6" points="279.36,148.56 304.12,161.59 277.04,239.27 285.93,196.84 	"/>
	<polygon class="st6" points="277.55,150.64 283.78,196.79 272.1,252.35 246.81,239.08 	"/>
	<polygon class="st6" points="275.94,148.19 254.39,151.63 223.11,241.96 228.41,241.1 244.86,202.59 264.37,181.68 	"/>
	<polygon class="st6" points="262.87,186.47 246.62,203.79 230.84,240.71 244.73,238.82 	"/>
	<polygon class="st6" points="244.3,241.1 242.08,291.87 223.11,244.15 	"/>
</g>
</svg>
