<?xml version="1.0" encoding="utf-8"?>
<!-- Generator: Adobe Illustrator 23.0.2, SVG Export Plug-In . SVG Version: 6.00 Build 0)  -->
<svg version="1.1" id="Layer_1" xmlns="http://www.w3.org/2000/svg" xmlns:xlink="http://www.w3.org/1999/xlink" x="0px" y="0px"
	 viewBox="0 0 1080 1080" style="enable-background:new 0 0 1080 1080;" xml:space="preserve">
<style type="text/css">
	.st0{fill:#362562;}
</style>
<g>
	<g>
		<g>
			<path class="st0" d="M171.32,287.29c-0.11-1.08-0.21-2.16-0.32-3.24c0.08-13.21,8.74-25.31,25.92-25.99c4.19,0,8.37,0,12.56,0
				c4.17,0.34,8.35,0.34,12.52,0c4.19,0,8.37,0,12.56,0c5.56,0.23,11.13,0.45,16.69,0.68c6.38,1.22,12.53,3.18,18.59,5.49
				c13.96,7.64,24.44,18.48,30.62,33.28c1.23,3.88,2.46,7.77,3.69,11.65c2.48,8.35,4.95,16.7,7.43,25.05
				c1.15,3.91,2.29,7.83,3.44,11.74c2.67,8.94,5.35,17.87,8.02,26.81c0.13,2.64,1.28,5.01,2.05,7.47c1.86,6.13,3.71,12.27,5.57,18.4
				c0.17,2.35,0.99,4.52,1.88,6.68c0.6,2.9,2.94,1.53,4.4,1.54c23.8,0.07,47.6-0.01,71.4-0.01c44.96,0,89.91,0.03,134.87,0.05
				c-0.03,0.86-0.07,1.72-0.1,2.59c-0.33,4.18-0.33,8.36,0,12.54c0,4.18,0,8.36,0,12.54c-0.33,4.18-0.33,8.36,0,12.54
				c0,4.18,0,8.36,0,12.54c-0.33,4.18-0.33,8.36,0,12.54c0,4.18,0,8.36,0,12.54c-0.33,4.18-0.33,8.36,0,12.54c0,4.18,0,8.36,0,12.54
				c-0.33,4.18-0.33,8.36,0,12.54c0,4.18,0,8.36,0,12.54c-0.33,4.18-0.33,8.36,0,12.54c0,4.18,0,8.36,0,12.54
				c-0.7,2.94,0.39,6.07-0.66,9.19c-2.02-1.86-3.8-3.51-5.58-5.15c-1.77-1.77-3.55-3.54-5.32-5.32c-2.17-2.67-4.59-5.1-7.26-7.26
				c-1.76-1.76-3.52-3.52-5.28-5.28c-2.17-2.67-4.59-5.1-7.26-7.26c-1.76-1.76-3.52-3.52-5.27-5.27c-2.17-2.68-4.59-5.1-7.27-7.27
				c-1.76-1.76-3.52-3.52-5.28-5.28c-2.17-2.67-4.59-5.1-7.26-7.26c-10.82-10.43-25.51-10.69-35.55-0.64
				c-10.03,10.05-9.75,24.68,0.68,35.52c2.17,2.68,4.59,5.1,7.27,7.27c1.76,1.76,3.52,3.52,5.27,5.27c2.17,2.68,4.59,5.1,7.27,7.27
				c1.76,1.76,3.52,3.52,5.28,5.28c2.17,2.67,4.59,5.1,7.26,7.26c1.76,1.76,3.52,3.52,5.27,5.27c2.17,2.68,4.59,5.1,7.27,7.27
				c1.76,1.76,3.52,3.52,5.27,5.27c2.17,2.68,4.59,5.1,7.27,7.27c1.76,1.76,3.52,3.52,5.28,5.28c2.17,2.67,4.59,5.1,7.26,7.26
				c1.76,1.76,3.52,3.52,5.27,5.27c2.17,2.68,4.59,5.1,7.27,7.27c1.76,1.76,3.52,3.52,5.28,5.28c2.17,2.67,4.59,5.1,7.26,7.26
				c1.74,2.16,3.76,4.02,6.07,5.57c2.04,1.65,4.12,3.24,6.87,3.52c4.39,1.81,8.84,2.23,13.4,0.68c3.64-0.39,6.71-1.96,9.34-4.47
				c1.69-0.9,3.03-2.18,4.05-3.81c3.34-2.79,6.4-5.86,9.19-9.19c1.39-0.84,2.51-1.96,3.35-3.35c3.34-2.79,6.4-5.86,9.19-9.19
				c1.39-0.84,2.51-1.96,3.35-3.35c3.34-2.79,6.4-5.86,9.19-9.19c1.39-0.84,2.51-1.96,3.35-3.35c3.34-2.79,6.4-5.86,9.19-9.19
				c1.39-0.84,2.51-1.96,3.35-3.35c3.34-2.79,6.4-5.86,9.19-9.19c1.39-0.84,2.51-1.96,3.35-3.35c3.34-2.79,6.4-5.86,9.19-9.19
				c1.39-0.84,2.51-1.96,3.35-3.35c3.34-2.79,6.4-5.86,9.19-9.19c1.39-0.84,2.51-1.96,3.35-3.35c3.34-2.79,6.4-5.86,9.19-9.19
				c2.07-1.47,3.61-3.35,4.42-5.78c1.73-1.86,2.32-4.16,2.56-6.6c1.08-3.8,0.97-7.58-0.08-11.39c-2.62-9.5-8.75-15.67-18.22-17.92
				c-10.24-2.43-18.74,1.1-25.46,9.09c-1.95,1.4-3.62,3.08-5.02,5.02c-2.23,2.23-4.46,4.46-6.69,6.69c-2.5,1.96-4.73,4.19-6.69,6.69
				c-1.95,1.95-3.9,3.9-5.86,5.86c-2.5,1.96-4.73,4.19-6.69,6.69c-1.95,1.95-3.9,3.9-5.86,5.86c-2.5,1.96-4.73,4.19-6.69,6.69
				c-2.23,2.23-4.46,4.46-6.69,6.69c-1.78,0.69-2.34,2.94-4.32,3.37c0.03-54.1,0.06-108.2,0.09-162.29
				c13.63-0.03,27.26-0.08,40.89-0.08c56.05-0.01,112.11-0.03,168.16,0.02c7.2,0.01,14.46-0.62,21.59,1.04
				c0.4,0.82,1.15,0.71,1.87,0.7c4.08,2.17,7.62,5.02,10.63,8.53c0.92,1.63,1.83,3.26,2.75,4.89c1.03,4.12,2,8.24,1.66,12.54
				c-0.35,1.56-0.69,3.12-1.04,4.69l-0.07,0.14c-0.84,1.92-1.46,3.89-1.46,6.01c-3.2,9.63-5.63,19.47-8.16,29.28
				c-0.92,2.69-1.91,5.36-2.11,8.24c-3.03,9.38-5.54,18.91-7.86,28.49c-1,3.6-2.01,7.21-3.01,10.81c-1.12,4.2-2.25,8.39-3.37,12.59
				c-2.43,7.75-4.72,15.54-6.32,23.52c-1.58,4.24-2.84,8.56-3.61,13.02c-1.53,4.13-2.72,8.35-3.47,12.7
				c-2.88,10.37-5.75,20.73-8.63,31.1c-0.45,1.91-0.91,3.83-1.36,5.74c-2.88,8.85-5.38,17.8-7.3,26.91
				c-1.91,3.92-2.41,8.25-3.57,12.39c-1.16,4.25-2.31,8.5-3.47,12.74c-0.47,1.63-0.94,3.25-1.41,4.88
				c-1.03,2.53-2.06,5.06-3.09,7.58c-2.06,3.68-4.11,7.37-6.17,11.05c-1.41,1.87-2.82,3.74-4.22,5.6c-2.42,2.54-4.84,5.07-7.26,7.61
				c-2.3,1.32-4.24,3.1-6.12,4.94c-7.05,4.47-14.42,8.3-22.33,11.04c-5.59,1.02-11.18,2.05-16.77,3.07
				c-3.05,0.06-6.09,0.12-9.14,0.18c-4.18,0-8.36,0-12.54,0c-4.18-0.33-8.36-0.33-12.54,0c-4.18,0-8.36,0-12.54,0
				c-4.18-0.33-8.36-0.33-12.54,0c-4.18,0-8.36,0-12.54,0c-4.18-0.33-8.36-0.33-12.54,0c-4.18,0-8.36,0-12.54,0
				c-4.18-0.33-8.36-0.33-12.54,0c-4.18,0-8.36,0-12.54,0c-4.18-0.33-8.36-0.33-12.54,0c-4.18,0-8.36,0-12.54,0
				c-4.18-0.33-8.36-0.33-12.54,0c-4.18,0-8.36,0-12.54,0c-4.18-0.33-8.36-0.33-12.54,0c-4.18,0-8.36,0-12.54,0
				c-4.18-0.33-8.36-0.33-12.54,0c-4.18,0-8.36,0-12.54,0c-4.18-0.33-8.36-0.33-12.54,0c-4.18,0-8.36,0-12.54,0
				c-4.18-0.33-8.36-0.33-12.54,0c-4.18,0-8.36,0-12.54,0c-2.76-0.06-5.53-0.12-8.29-0.18c-5.65-0.72-11.28-1.55-16.78-3.07
				c-8.54-2.74-16.39-6.86-23.77-11.92c-1.78-1.5-3.57-3-5.35-4.5c-2.27-2.36-4.53-4.73-6.8-7.09c-1.62-2.18-3.24-4.36-4.86-6.54
				c-1.96-3.41-3.92-6.83-5.89-10.24c-1.23-3.58-2.26-7.23-4.11-10.57c0.85-0.8-0.05-1.31-0.31-1.93
				c-0.86-4.62-2.29-9.07-3.96-13.44c-0.75-3.99-1.75-7.9-3.43-11.62c-0.59-3.81-1.87-7.42-3.13-11.04
				c-0.16-0.51-0.32-1.02-0.48-1.53c-1.23-4.22-2.46-8.44-3.69-12.66c-0.99-4.21-2.04-8.41-3.71-12.41
				c-2.02-8.49-4.66-16.8-7.39-25.09c-0.99-4.68-2.29-9.27-4.04-13.73c-1.92-8.08-4.41-15.99-6.99-23.87
				c-1.16-4.19-2.32-8.39-3.48-12.58c-1.64-5-2.56-10.23-4.73-15.06c-1.67-7.64-3.94-15.12-6.51-22.5
				c-0.82-4.31-2.22-8.45-3.68-12.58c-1.22-4.16-2.44-8.32-3.66-12.49c-1.06-3.6-1.37-7.45-3.53-10.69l0.19,0.18l0.2-0.17
				c-1.51-5.15-3.01-10.31-4.52-15.46c-0.99-3.91-1.76-7.89-3.57-11.55c-0.54-3.82-1.74-7.46-3.13-11.04
				c-0.13-0.51-0.26-1.02-0.39-1.53c-1.24-4.23-2.48-8.46-3.72-12.7c-1.11-4.17-2.02-8.41-3.77-12.38
				c-2.01-8.49-4.52-16.84-7.39-25.09c-0.55-3.45-1.57-6.77-2.77-10.05c-2.75-9.19-5.51-18.37-8.26-27.56
				c-0.81-4.71-2.4-9.2-3.88-13.72c-1.05-5.21-2.88-9.86-8.47-11.81c-1.05-0.61-2.19-0.72-3.37-0.58
				c-14.99-0.07-29.97-0.18-44.96-0.19c-5.03,0-9.88-0.71-14.46-2.88c-3.7-2.19-6.84-4.99-9.36-8.48c-1.26-2.7-2.51-5.4-3.77-8.1
				l0.21,0.15c0,0,0.16-0.2,0.16-0.2C171.53,288.04,171.43,287.67,171.32,287.29z"/>
		</g>
		<g>
			<path class="st0" d="M545.5,271.52c0.88-1.37,1.75-2.74,2.63-4.11c2.99-2.98,6.31-5.53,10.08-7.45c0.92-0.02,1.77-0.21,2.42-0.92
				c9.52-2,17.9,0.17,25.02,6.9c1.34,1.84,2.68,3.68,4.02,5.53c1.62,4.04,2.75,8.19,2.86,12.58c0,4.19,0,8.38,0,12.57
				c0,4.17,0,8.34,0,12.51c0,4.19,0,8.38,0,12.57c0,4.17,0,8.34,0,12.51c0,4.19,0,8.38,0,12.57c0,4.17,0,8.34,0,12.51
				c0,4.19,0,8.38,0,12.57c0,4.17,0,8.34,0,12.51c0,4.19,0,8.38,0,12.57c-0.02,3.36-0.03,6.72-0.05,10.08
				c-2.25,0.02-4.49,0.03-6.74,0.05c-4.19,0-8.38,0-12.57,0c-4.17,0-8.34,0-12.51,0c-4.19,0-8.38,0-12.57,0
				c-1.68-0.02-3.37-0.04-5.05-0.05c-0.03-41.85-0.05-83.71-0.1-125.56C542.94,277.9,544.43,274.77,545.5,271.52z"/>
		</g>
		<g>
			<path class="st0" d="M412.08,865.94c-1.74-1.66-3.47-3.32-5.21-4.98c-2.75-3.79-5.59-7.51-7.75-11.69
				c-0.18-0.3-0.35-0.59-0.53-0.89c-1.15-4.19-3.04-8.16-3.69-12.49c-0.62-4.15-0.7-8.33-0.65-12.52c0.06-0.54,0.12-1.08,0.18-1.62
				c0-0.31,0-0.63,0-0.94c0.6-2.44,1.19-4.88,1.79-7.31c0.77-2.22,1.54-4.44,2.31-6.67c1.42-2.43,2.84-4.86,4.26-7.28
				c3.16-3.43,6.31-6.87,9.47-10.3c0.99-0.12,1.49-0.88,2.02-1.59c3.39-1.92,6.79-3.85,10.18-5.77c3.32-1.02,6.64-2.04,9.95-3.05
				c4.42-0.74,8.89-0.62,13.34-0.72c1.07,0.14,2.14,0.27,3.21,0.41c0.6,0.11,1.2,0.21,1.79,0.32c2.38,0.6,4.77,1.19,7.15,1.79
				c14.98,5.79,25.34,16.16,30.98,31.22c0.17,0.51,0.34,1.01,0.51,1.52c0.21,0.56,0.41,1.12,0.62,1.68
				c0.08,0.55,0.17,1.11,0.25,1.66c-0.13,0.92-0.03,1.78,0.58,2.52c0.07,0.83,0.14,1.66,0.2,2.49c0.52,5.6,0.16,11.16-0.79,16.68
				c-0.08,0.56-0.17,1.11-0.25,1.67c-0.46,1.39-0.92,2.79-1.38,4.18c-0.4,1.1-0.81,2.19-1.21,3.29c-1.77,3.04-3.53,6.08-5.3,9.12
				c-0.75,1.03-1.5,2.05-2.25,3.08c-3.51,3.1-7.02,6.19-10.53,9.29c-2.07,1.19-4.14,2.39-6.21,3.58c-1.94,0.77-3.87,1.53-5.81,2.3
				c-3.59,0.73-7.17,1.47-10.76,2.2c-5.01-0.19-10.04,0.12-15.01-0.84c-3.1-1.01-6.21-2.01-9.31-3.02
				c-1.08-0.45-2.16-0.89-3.25-1.34C418.04,869.92,415.06,867.93,412.08,865.94z"/>
		</g>
		<g>
			<path class="st0" d="M662.89,868.45c-7.6-5.84-13.57-12.99-17.48-21.79c-0.98-3.59-1.97-7.18-2.95-10.76
				c-0.23-4.18-0.47-8.35-0.7-12.53c0.94-4.13,1.87-8.27,2.81-12.4c5.6-14.35,15.67-24.26,29.87-30.08
				c3.88-0.91,7.77-1.82,11.65-2.74c4.7,0.09,9.41-0.17,14.08,0.66c3.6,1.05,7.21,2.09,10.81,3.14
				c13.15,6.28,22.44,16.12,27.49,29.85c0.73,3.3,1.46,6.61,2.19,9.91c0.17,5.58,0.27,11.16-0.84,16.67
				c-0.72,2.45-1.45,4.91-2.17,7.36c-0.76,1.71-1.51,3.43-2.27,5.14c-2,2.95-3.99,5.89-5.99,8.84c-2.38,2.28-4.77,4.57-7.15,6.85
				c-3.19,2.01-6.38,4.01-9.58,6.02c-0.52,0.26-1.04,0.51-1.56,0.77c-3.33,0.96-6.66,1.93-9.99,2.89c-4.96,1.12-10,0.57-15.01,0.78
				c-4.14-0.99-8.28-1.99-12.42-2.98c-1.72-0.72-3.43-1.44-5.15-2.16C666.64,870.76,664.77,869.6,662.89,868.45z"/>
		</g>
	</g>
</g>
</svg>
