<?xml version="1.0" encoding="utf-8"?>
<!-- Generator: Adobe Illustrator 23.0.2, SVG Export Plug-In . SVG Version: 6.00 Build 0)  -->
<svg version="1.1" id="Layer_1" xmlns="http://www.w3.org/2000/svg" xmlns:xlink="http://www.w3.org/1999/xlink" x="0px" y="0px"
	 viewBox="0 0 1137 1261" style="enable-background:new 0 0 1137 1261;" xml:space="preserve">
<style type="text/css">
	.st0{fill:#FFFFFF;}
</style>
<g>
	<g>
		<path class="st0" d="M160,1018.83c7.56-27.89,14.75-54.63,22.07-81.34c10.28-37.53,20.88-74.98,30.69-112.63
			c1.34-5.13,0.56-12.1-1.95-16.77C95.63,593.28,196.64,330.51,426.13,248.58C652.95,167.6,902.4,313.55,943.18,551.1
			c37.62,219.18-111.22,425.92-329.85,457.5c-82.66,11.94-161.45-1.44-236.32-38.61c-5.4-2.68-13.12-3.53-18.95-2.05
			c-62.61,15.9-125.06,32.45-187.56,48.79C167.5,1017.52,164.41,1017.96,160,1018.83z M254.57,925.38c3.14-0.63,4.8-0.87,6.42-1.29
			c35.91-9.4,71.75-19.08,107.78-27.97c5.14-1.27,12.18-0.35,16.72,2.32c72.23,42.59,149.39,56.8,231.98,41.96
			C791,909.24,911.05,734.21,877.55,561.03C842.56,380.11,674.2,265.37,493.26,299.12c-144.2,26.9-256.03,155.35-263.11,301.53
			c-3.44,71.15,13.59,136.66,51.99,196.56c3.82,5.96,4.71,11.12,2.63,17.94c-5.3,17.41-9.78,35.06-14.56,52.63
			C265.09,886.57,260.01,905.37,254.57,925.38z"/>
		<path class="st0" d="M659.26,822.58c-16.22-3.93-32.74-6.9-48.61-11.93c-95.75-30.4-165.91-92.46-218.49-176.61
			c-18.9-30.24-36.73-60.68-40.34-96.93c-4.03-40.51,9.71-74.49,40.38-101.28c13.28-11.6,38.43-14.31,53.51-5.25
			c5.71,3.43,11.28,9.4,13.76,15.5c10.46,25.79,20.42,51.84,28.94,78.32c2.01,6.26-0.48,15.65-4.12,21.66
			c-5.65,9.34-14.22,16.87-21.24,25.42c-9.92,12.09-10.12,17.21-2.42,30.84c28.79,50.98,69.69,89.16,121.87,115.45
			c17.97,9.05,23.38,8.25,37.07-6.82c8.89-9.78,17.72-19.65,25.82-30.08c6.06-7.8,13.15-10.03,21.51-5.73
			c28.25,14.53,56.31,29.43,84.37,44.33c7.86,4.17,7.1,11.7,6.35,18.91c-4.36,42-22.79,64.47-74.52,79.61
			c-7.43,2.17-15.49,2.21-23.25,3.23C659.65,821.67,659.45,822.13,659.26,822.58z"/>
	</g>
</g>
</svg>
