<?xml version="1.0" encoding="utf-8"?>
<!-- Generator: Adobe Illustrator 23.0.2, SVG Export Plug-In . SVG Version: 6.00 Build 0)  -->
<svg version="1.1" id="Layer_1" xmlns="http://www.w3.org/2000/svg" xmlns:xlink="http://www.w3.org/1999/xlink" x="0px" y="0px"
	 viewBox="0 0 1137 1261" style="enable-background:new 0 0 1137 1261;" xml:space="preserve">
<style type="text/css">
	.st0{fill:#FFFFFF;}
	
		.st1{fill:none;stroke:#FFFFFF;stroke-width:5;stroke-linecap:round;stroke-miterlimit:10;stroke-dasharray:10.0379,10.0379,10.0379,10.0379,10.0379,10.0379;}
	
		.st2{fill:none;stroke:#FFFFFF;stroke-width:5;stroke-linecap:round;stroke-linejoin:round;stroke-dasharray:2.0132,10.0658,10.0658,2.0132,10.0658,10.0658;}
</style>
<g>
	<path class="st0" d="M732.87,729.26c0,11.07,0.03,22.13-0.01,33.2c-0.05,12.28-8.38,20.66-20.72,20.5
		c-83.66-1.09-157.24-28.84-219.83-84.44c-51.15-45.43-84.79-101.76-101.42-168.14c-6.47-25.81-9.63-52.06-9.51-78.68
		c0.05-11.82,7.89-20.24,19.75-20.35c22.48-0.22,44.96-0.22,67.43,0c12.33,0.12,20.09,8.4,20.14,20.72
		c0.11,22.98,3.69,45.4,10.71,67.28c2.72,8.49,1.07,15.78-5.34,22.14c-13.34,13.23-26.52,26.63-39.83,39.88
		c-1.59,1.58-2.08,2.64-0.88,4.89c28.73,54.08,70.1,95.49,124.1,124.36c2.7,1.44,4.11,0.94,6.08-1.06
		c13.03-13.22,26.2-26.29,39.28-39.46c6.2-6.24,13.33-8.11,21.78-5.39c21.97,7.09,44.5,10.7,67.61,10.74
		c12.61,0.02,20.62,8.31,20.65,20.96C732.89,707.36,732.87,718.31,732.87,729.26z"/>
	<g>
		<circle class="st1" cx="547.5" cy="603.5" r="450.5"/>
	</g>
	<g>
		<circle class="st2" cx="544.5" cy="606.5" r="345.38"/>
	</g>
</g>
</svg>
