<svg width="492" height="491" viewBox="0 0 492 491" fill="none" xmlns="http://www.w3.org/2000/svg">
<path d="M342.5 311.415C342.5 317.215 342.5 322.915 342.5 328.715C342.5 335.115 338.1 339.515 331.7 339.415C288.2 338.815 249.9 324.415 217.3 295.515C190.7 271.915 173.2 242.515 164.5 208.015C161.1 194.615 159.5 180.915 159.5 167.115C159.5 160.915 163.6 156.615 169.8 156.515C181.5 156.415 193.2 156.415 204.9 156.515C211.3 156.615 215.4 160.915 215.4 167.315C215.5 179.315 217.3 190.915 221 202.315C222.4 206.715 221.6 210.515 218.2 213.815C211.3 220.715 204.4 227.715 197.5 234.615C196.7 235.415 196.4 236.015 197 237.115C212 265.215 233.5 286.815 261.6 301.815C263 302.615 263.7 302.315 264.8 301.215C271.6 294.315 278.4 287.515 285.2 280.715C288.4 277.515 292.1 276.515 296.5 277.915C307.9 281.615 319.7 283.515 331.7 283.515C338.3 283.515 342.4 287.815 342.4 294.415C342.5 300.015 342.5 305.715 342.5 311.415Z" fill="white"/>
<path d="M221.8 490.715C221.4 490.715 221 490.715 220.6 490.615C203.5 488.815 186.6 485.315 170.3 480.015C164.2 478.015 160.9 471.515 162.9 465.515C164.9 459.415 171.4 456.115 177.4 458.115C192.2 462.915 207.5 466.115 223 467.715C229.3 468.415 234 474.015 233.3 480.415C232.6 486.315 227.6 490.715 221.8 490.715ZM270.7 490.615C264.9 490.615 259.8 486.215 259.2 480.315C258.5 474.015 263.1 468.315 269.5 467.615C285 466.015 300.3 462.715 315 457.915C321.1 455.915 327.6 459.215 329.6 465.315C331.6 471.415 328.3 477.915 322.2 479.915C305.9 485.215 289 488.815 271.9 490.615C271.5 490.615 271.1 490.615 270.7 490.615ZM129 460.715C127 460.715 125.1 460.215 123.2 459.215C108.4 450.615 94.4 440.515 81.6 429.015C76.9 424.715 76.5 417.415 80.7 412.715C85 408.015 92.3 407.615 97 411.815C108.6 422.215 121.3 431.415 134.7 439.215C140.2 442.415 142.1 449.515 138.9 455.015C136.9 458.615 133 460.715 129 460.715ZM363.4 460.515C359.4 460.515 355.5 458.415 353.4 454.715C350.2 449.215 352.1 442.115 357.6 438.915C371 431.115 383.7 421.915 395.2 411.515C399.9 407.215 407.2 407.615 411.5 412.315C415.8 417.015 415.4 424.315 410.7 428.615C398 440.115 384 450.315 369.2 458.915C367.3 460.015 365.4 460.515 363.4 460.515ZM56.5 395.615C52.9 395.615 49.4 394.015 47.2 390.915C37.1 377.015 28.4 362.115 21.4 346.415C18.8 340.615 21.4 333.715 27.2 331.115C33 328.515 39.9 331.115 42.5 336.915C48.8 351.115 56.7 364.615 65.9 377.215C69.7 382.415 68.5 389.615 63.4 393.315C61.3 394.915 58.9 395.615 56.5 395.615ZM435.7 395.215C433.3 395.215 431 394.515 428.9 393.015C423.7 389.215 422.6 382.015 426.3 376.915C435.5 364.315 443.3 350.715 449.6 336.615C452.2 330.815 459 328.215 464.8 330.815C470.6 333.415 473.2 340.215 470.6 346.015C463.6 361.715 455 376.615 444.9 390.515C442.8 393.615 439.3 395.215 435.7 395.215ZM16.7 306.715C11.4 306.715 6.59999 303.015 5.39999 297.615C1.79999 280.915 0 263.715 0 246.515C0 240.115 5.1 234.915 11.5 234.915C17.9 234.915 23 240.115 23 246.415C23 262.015 24.7 277.615 27.9 292.715C29.2 298.915 25.3 305.115 19 306.415C18.3 306.615 17.5 306.715 16.7 306.715ZM475.4 306.215C474.6 306.215 473.8 306.115 473 305.915C466.8 304.615 462.8 298.515 464.1 292.215C467.3 277.115 468.9 261.515 468.9 245.915V244.915C468.9 238.515 474.1 233.415 480.4 233.415C486.8 233.415 491.9 238.615 491.9 244.915V245.915C491.9 263.115 490.1 280.315 486.6 297.015C485.5 302.515 480.7 306.215 475.4 306.215ZM16.5 209.215C15.7 209.215 14.9 209.115 14.1 209.015C7.90001 207.715 3.90001 201.615 5.20001 195.315C8.70001 178.515 14 162.015 21 146.415C23.6 140.615 30.4 137.915 36.2 140.515C42 143.115 44.7 149.915 42.1 155.715C35.8 169.915 31 184.815 27.8 200.015C26.7 205.515 21.9 209.215 16.5 209.215ZM475.2 207.815C469.9 207.815 465.1 204.115 463.9 198.715C460.6 183.515 455.7 168.615 449.3 154.515C446.7 148.715 449.3 141.815 455.1 139.215C460.9 136.615 467.8 139.215 470.4 145.015C477.4 160.615 482.9 177.115 486.5 193.815C487.8 200.015 483.9 206.215 477.6 207.515C476.8 207.715 476 207.815 475.2 207.815ZM56 120.115C53.6 120.115 51.3 119.415 49.2 117.915C44 114.215 42.9 106.915 46.6 101.815C56.7 87.9149 68.2 75.1149 80.9 63.5149C85.6 59.2149 92.9 59.6149 97.2 64.3149C101.5 69.0149 101.1 76.3149 96.4 80.6149C84.9 91.0149 74.4 102.715 65.3 115.315C63.1 118.515 59.5 120.115 56 120.115ZM435.2 119.015C431.6 119.015 428.1 117.415 425.9 114.315C416.7 101.815 406.2 90.2149 394.6 79.8149C389.8 75.5149 389.4 68.2149 393.7 63.5149C397.9 58.7149 405.2 58.3149 410 62.6149C422.8 74.0149 434.4 86.8149 444.5 100.715C448.3 105.815 447.2 113.115 442 116.815C440 118.215 437.6 119.015 435.2 119.015ZM128.2 54.7149C124.2 54.7149 120.4 52.6149 118.2 49.0149C115 43.5149 116.9 36.4149 122.4 33.2149C137.2 24.6149 153 17.5149 169.3 12.1149C175.4 10.1149 181.9 13.4149 183.9 19.5149C185.9 25.6149 182.6 32.1149 176.5 34.1149C161.8 38.9149 147.5 45.4149 134 53.2149C132.2 54.2149 130.2 54.7149 128.2 54.7149ZM362.5 54.0149C360.5 54.0149 358.6 53.5149 356.8 52.5149C343.3 44.8149 329 38.4149 314.2 33.7149C308.1 31.8149 304.8 25.3149 306.7 19.2149C308.6 13.1149 315.2 9.81492 321.2 11.7149C337.5 16.9149 353.4 23.9149 368.2 32.5149C373.7 35.7149 375.6 42.7149 372.5 48.3149C370.4 51.9149 366.6 54.0149 362.5 54.0149ZM220.8 24.4149C215 24.4149 210 20.0149 209.3 14.1149C208.6 7.81491 213.2 2.11491 219.6 1.41491C236.6 -0.385088 254.1 -0.485092 271 1.21491C277.3 1.81491 282 7.51491 281.3 13.9149C280.7 20.3149 275 24.9149 268.6 24.2149C253.3 22.7149 237.4 22.7149 222 24.3149C221.6 24.3149 221.2 24.4149 220.8 24.4149Z" fill="white"/>
<path d="M244.6 438.815C243 438.815 241.5 438.515 240.1 437.915C238.7 438.415 237.1 438.715 235.5 438.615C220.3 437.915 205.2 435.415 190.7 431.215C184.6 429.415 181.1 423.015 182.8 416.915C184.6 410.815 191 407.315 197.1 409.015C209.9 412.715 223.1 414.915 236.5 415.515C237.9 415.615 239.3 415.915 240.5 416.415C241.7 415.915 243.1 415.715 244.5 415.715C257.9 415.715 271.2 414.115 284.1 411.015C290.3 409.515 296.5 413.315 298 419.515C299.5 425.715 295.7 431.915 289.5 433.415C275 436.915 259.9 438.815 244.6 438.815ZM326.9 418.815C322.7 418.815 318.7 416.515 316.6 412.615C313.7 406.915 315.9 400.015 321.5 397.015C323.9 395.815 326.2 394.515 328.5 393.215C334 390.015 341.1 391.915 344.3 397.415C347.5 402.915 345.6 410.015 340.1 413.215C337.5 414.715 334.8 416.215 332.1 417.615C330.5 418.415 328.7 418.815 326.9 418.815ZM154.8 414.815C152.8 414.815 150.9 414.315 149 413.315C146.4 411.815 143.8 410.215 141.2 408.515C135.8 405.115 134.3 397.915 137.7 392.515C141.1 387.115 148.3 385.615 153.7 389.015C155.9 390.415 158.2 391.815 160.5 393.215C166 396.415 167.9 403.415 164.7 409.015C162.6 412.815 158.8 414.815 154.8 414.815ZM368.5 389.115C365.5 389.115 362.4 387.915 360.1 385.515C355.7 380.915 355.9 373.615 360.5 369.215C370.2 360.015 378.7 349.615 385.9 338.415C386.7 337.215 387.6 336.215 388.7 335.415C388.9 334.115 389.4 332.815 390.1 331.615C396.8 320.015 402.1 307.715 405.8 294.915C407.6 288.815 414 285.315 420.1 287.115C426.2 288.915 429.7 295.315 427.9 301.415C423.6 316.015 417.6 330.015 410 343.215C409.2 344.615 408.1 345.815 406.9 346.715C406.6 348.215 406.1 349.715 405.2 351.015C397 363.715 387.3 375.515 376.3 386.015C374.3 388.015 371.4 389.115 368.5 389.115ZM114.5 383.315C111.5 383.315 108.4 382.115 106.2 379.715C95.7 368.715 86.4999 356.515 78.8999 343.415C78.0999 342.015 77.5999 340.515 77.3999 339.015C76.1999 338.015 75.1999 336.815 74.4999 335.415C67.4999 321.915 62.0999 307.615 58.4999 292.915C56.9999 286.715 60.7999 280.515 66.9999 278.915C73.1999 277.415 79.3999 281.215 80.9999 287.415C84.1999 300.315 88.8999 312.915 94.9999 324.815C95.5999 326.115 96 327.415 96.2 328.715C97.2 329.515 98.0999 330.615 98.7999 331.815C105.5 343.315 113.6 354.115 122.8 363.715C127.2 368.315 127 375.615 122.4 380.015C120.3 382.215 117.4 383.315 114.5 383.315ZM424 267.615C423.8 267.615 423.6 267.615 423.4 267.615C417 267.315 412.1 261.915 412.4 255.515C412.5 252.815 412.6 250.215 412.6 247.515V246.715C412.6 240.315 417.8 235.215 424.1 235.215C430.5 235.215 435.6 240.415 435.6 246.715V247.515C435.6 250.515 435.5 253.615 435.4 256.615C435.2 262.815 430.1 267.615 424 267.615ZM64.7 259.215C58.3 259.215 53.2 254.215 53.2 247.815V247.415C53.2 244.515 53.2999 241.615 53.3999 238.715C53.6999 232.315 59.1999 227.315 65.4999 227.715C71.8999 228.015 76.7999 233.415 76.4999 239.815C76.3999 242.315 76.2999 244.915 76.2999 247.515C76.1999 253.915 71.1 259.215 64.7 259.215ZM419 215.915C413.8 215.915 409.1 212.415 407.8 207.115C404.6 194.215 399.9 181.615 393.7 169.815C393.1 168.515 392.6 167.215 392.5 165.915C391.5 165.115 390.6 164.015 389.9 162.815C383.2 151.315 375.1 140.615 365.8 130.915C361.4 126.315 361.5 119.015 366.1 114.615C370.7 110.215 378 110.315 382.4 114.915C392.9 125.815 402.1 138.015 409.8 151.115C410.6 152.515 411.1 154.015 411.3 155.515C412.5 156.515 413.5 157.715 414.2 159.115C421.2 172.615 426.6 186.815 430.2 201.615C431.7 207.815 427.9 214.115 421.8 215.615C420.8 215.815 419.9 215.915 419 215.915ZM71.7999 208.815C70.6999 208.815 69.5999 208.715 68.5999 208.315C62.4999 206.515 59 200.115 60.7 194.015C64.9 179.415 70.8999 165.415 78.4999 152.215C79.2999 150.815 80.3999 149.615 81.5999 148.715C81.8999 147.215 82.3999 145.715 83.2999 144.415C91.4999 131.615 101.2 119.815 112.1 109.315C116.7 104.915 124 105.015 128.4 109.615C132.8 114.215 132.7 121.515 128.1 125.915C118.5 135.115 109.9 145.515 102.7 156.715C101.9 157.915 101 158.915 99.8999 159.715C99.6999 161.015 99.1999 162.315 98.4999 163.615C91.7999 175.215 86.5999 187.515 82.8999 200.315C81.3999 205.515 76.7999 208.815 71.7999 208.815ZM341.1 107.515C339 107.515 336.8 106.915 334.9 105.715C332.7 104.315 330.4 102.915 328.1 101.515C322.6 98.3149 320.7 91.3149 323.8 85.7149C327 80.2149 334 78.3149 339.6 81.4149C342.2 82.9149 344.8 84.5149 347.4 86.1149C352.8 89.5149 354.3 96.7149 350.9 102.115C348.6 105.615 344.9 107.515 341.1 107.515ZM154.1 103.615C150.1 103.615 146.3 101.515 144.1 97.9149C140.9 92.4149 142.8 85.3149 148.3 82.1149C150.9 80.6149 153.6 79.1149 156.3 77.7149C162 74.8149 168.9 77.0149 171.9 82.6149C174.8 88.3149 172.6 95.2149 167 98.2149C164.6 99.4149 162.3 100.715 160 102.115C158.1 103.115 156.1 103.615 154.1 103.615ZM294.5 86.4149C293.4 86.4149 292.4 86.3149 291.3 85.9149C278.5 82.2149 265.3 80.0149 251.9 79.5149C250.5 79.4149 249.1 79.1149 247.9 78.6149C246.7 79.1149 245.3 79.3149 243.9 79.3149C230.5 79.3149 217.2 81.0149 204.3 84.1149C198.1 85.6149 191.9 81.8149 190.3 75.6149C188.8 69.4149 192.6 63.2149 198.8 61.6149C213.5 58.0149 228.6 56.2149 243.8 56.1149C245.4 56.1149 246.9 56.4149 248.3 57.0149C249.7 56.5149 251.3 56.2149 252.9 56.3149C268.1 57.0149 283.2 59.4149 297.7 63.6149C303.8 65.4149 307.4 71.8149 305.6 77.9149C304.1 83.1149 299.5 86.4149 294.5 86.4149Z" fill="white"/>
</svg>
