<?xml version="1.0" encoding="utf-8"?>
<!-- Generator: Adobe Illustrator 23.0.2, SVG Export Plug-In . SVG Version: 6.00 Build 0)  -->
<svg version="1.1" id="Layer_1" xmlns="http://www.w3.org/2000/svg" xmlns:xlink="http://www.w3.org/1999/xlink" x="0px" y="0px"
	 viewBox="0 0 1137 1261" style="enable-background:new 0 0 1137 1261;" xml:space="preserve">
<style type="text/css">
	.st0{fill:#362562;}
</style>
<g>
	<g>
		<path class="st0" d="M179.21,1054.67c7.81-28.8,15.24-56.42,22.79-84c10.61-38.76,21.56-77.43,31.7-116.31
			c1.38-5.3,0.58-12.5-2.01-17.32c-118.95-221.83-14.64-493.19,222.36-577.8c234.23-83.63,491.84,67.1,533.95,312.41
			c38.85,226.34-114.86,439.84-340.63,472.46c-85.36,12.33-166.72-1.48-244.05-39.87c-5.58-2.77-13.55-3.65-19.57-2.12
			c-64.66,16.42-129.14,33.51-193.69,50.38C186.96,1053.32,183.77,1053.77,179.21,1054.67z M276.88,958.17
			c3.24-0.65,4.96-0.9,6.63-1.33c37.08-9.71,74.09-19.71,111.3-28.88c5.31-1.31,12.58-0.36,17.26,2.4
			c74.59,43.98,154.27,58.65,239.56,43.33c179.21-32.19,303.18-212.94,268.59-391.78c-36.14-186.83-210.01-305.33-396.85-270.47
			c-148.91,27.78-264.4,160.43-271.71,311.38c-3.56,73.48,14.03,141.13,53.69,202.99c3.95,6.15,4.86,11.48,2.72,18.52
			c-5.47,17.98-10.1,36.21-15.04,54.35C287.74,918.09,282.48,937.5,276.88,958.17z"/>
		<path class="st0" d="M694.79,852c-16.75-4.05-33.81-7.12-50.2-12.32c-98.88-31.39-171.33-95.48-225.64-182.39
			c-19.52-31.23-37.93-62.66-41.66-100.1c-4.16-41.83,10.03-76.93,41.7-104.59c13.71-11.98,39.68-14.78,55.26-5.42
			c5.9,3.54,11.65,9.71,14.2,16.01c10.8,26.63,21.09,53.54,29.88,80.88c2.08,6.47-0.5,16.16-4.25,22.37
			c-5.83,9.64-14.68,17.42-21.93,26.25c-10.25,12.48-10.45,17.77-2.5,31.85c29.73,52.65,71.96,92.07,125.85,119.22
			c18.56,9.35,24.15,8.52,38.28-7.04c9.18-10.1,18.3-20.3,26.67-31.06c6.26-8.05,13.58-10.36,22.22-5.92
			c29.17,15.01,58.15,30.39,87.13,45.78c8.12,4.31,7.33,12.09,6.55,19.53c-4.5,43.37-23.54,66.57-76.96,82.21
			c-7.67,2.25-15.99,2.28-24.01,3.33C695.19,851.07,694.99,851.54,694.79,852z"/>
	</g>
</g>
</svg>
