<svg width="1615" height="467" viewBox="0 0 1615 467" fill="none" xmlns="http://www.w3.org/2000/svg">
<path d="M2.30005 118.1L3.10005 109.2C3.10005 109.2 192.5 -94.7 290.9 147.9C389.3 390.5 439.2 64.5 498.1 147.9C549.2 220.3 662.1 303.9 795.5 196.3C946.7 74.3 992.2 30.2 1128.4 214C1264.6 397.8 1292.8 98.7 1350.9 113.2C1408.9 127.7 1427.5 -91.6 1593.5 390.5V407.1" stroke="white" stroke-width="3" stroke-miterlimit="10"/>
<path d="M319.1 161.6C321.309 161.6 323.1 159.809 323.1 157.6C323.1 155.391 321.309 153.6 319.1 153.6C316.891 153.6 315.1 155.391 315.1 157.6C315.1 159.809 316.891 161.6 319.1 161.6Z" stroke="white" stroke-width="3" stroke-miterlimit="10"/>
<path d="M727.8 182.5C730.009 182.5 731.8 180.709 731.8 178.5C731.8 176.291 730.009 174.5 727.8 174.5C725.591 174.5 723.8 176.291 723.8 178.5C723.8 180.709 725.591 182.5 727.8 182.5Z" stroke="white" stroke-width="3" stroke-miterlimit="10"/>
<path d="M1202.6 117.3C1204.81 117.3 1206.6 115.509 1206.6 113.3C1206.6 111.091 1204.81 109.3 1202.6 109.3C1200.39 109.3 1198.6 111.091 1198.6 113.3C1198.6 115.509 1200.39 117.3 1202.6 117.3Z" stroke="white" stroke-width="3" stroke-miterlimit="10"/>
<path d="M1018 81.8C1020.21 81.8 1022 80.0091 1022 77.8C1022 75.5909 1020.21 73.8 1018 73.8C1015.79 73.8 1014 75.5909 1014 77.8C1014 80.0091 1015.79 81.8 1018 81.8Z" stroke="white" stroke-width="3" stroke-miterlimit="10"/>
<path d="M414.3 92.3C416.509 92.3 418.3 90.5091 418.3 88.3C418.3 86.0909 416.509 84.3 414.3 84.3C412.091 84.3 410.3 86.0909 410.3 88.3C410.3 90.5091 412.091 92.3 414.3 92.3Z" stroke="white" stroke-miterlimit="10"/>
<path d="M257.9 45.5C260.109 45.5 261.9 43.7091 261.9 41.5C261.9 39.2909 260.109 37.5 257.9 37.5C255.691 37.5 253.9 39.2909 253.9 41.5C253.9 43.7091 255.691 45.5 257.9 45.5Z" stroke="white" stroke-miterlimit="10"/>
<path d="M612.6 201.1C614.809 201.1 616.6 199.309 616.6 197.1C616.6 194.891 614.809 193.1 612.6 193.1C610.391 193.1 608.6 194.891 608.6 197.1C608.6 199.309 610.391 201.1 612.6 201.1Z" stroke="white" stroke-miterlimit="10"/>
<path d="M1101 61.6C1103.21 61.6 1105 59.8091 1105 57.6C1105 55.3909 1103.21 53.6 1101 53.6C1098.79 53.6 1097 55.3909 1097 57.6C1097 59.8091 1098.79 61.6 1101 61.6Z" stroke="white" stroke-miterlimit="10"/>
<path d="M1298.5 56C1300.71 56 1302.5 54.2091 1302.5 52C1302.5 49.7909 1300.71 48 1298.5 48C1296.29 48 1294.5 49.7909 1294.5 52C1294.5 54.2091 1296.29 56 1298.5 56Z" stroke="white" stroke-miterlimit="10"/>
<path d="M402.2 182.5C404.409 182.5 406.2 180.709 406.2 178.5C406.2 176.291 404.409 174.5 402.2 174.5C399.991 174.5 398.2 176.291 398.2 178.5C398.2 180.709 399.991 182.5 402.2 182.5Z" fill="white"/>
<path d="M186.5 8C188.709 8 190.5 6.20914 190.5 4C190.5 1.79086 188.709 0 186.5 0C184.291 0 182.5 1.79086 182.5 4C182.5 6.20914 184.291 8 186.5 8Z" fill="white"/>
<path d="M545.2 134.6C547.409 134.6 549.2 132.809 549.2 130.6C549.2 128.391 547.409 126.6 545.2 126.6C542.991 126.6 541.2 128.391 541.2 130.6C541.2 132.809 542.991 134.6 545.2 134.6Z" fill="white"/>
<path d="M1153 205.5C1155.21 205.5 1157 203.709 1157 201.5C1157 199.291 1155.21 197.5 1153 197.5C1150.79 197.5 1149 199.291 1149 201.5C1149 203.709 1150.79 205.5 1153 205.5Z" fill="white"/>
<path d="M1120.8 153.1C1123.01 153.1 1124.8 151.309 1124.8 149.1C1124.8 146.891 1123.01 145.1 1120.8 145.1C1118.59 145.1 1116.8 146.891 1116.8 149.1C1116.8 151.309 1118.59 153.1 1120.8 153.1Z" fill="white"/>
<path d="M1261.9 149.1C1264.11 149.1 1265.9 147.309 1265.9 145.1C1265.9 142.891 1264.11 141.1 1261.9 141.1C1259.69 141.1 1257.9 142.891 1257.9 145.1C1257.9 147.309 1259.69 149.1 1261.9 149.1Z" fill="white"/>
<path d="M1463.4 56.4C1465.61 56.4 1467.4 54.6091 1467.4 52.4C1467.4 50.1909 1465.61 48.4 1463.4 48.4C1461.19 48.4 1459.4 50.1909 1459.4 52.4C1459.4 54.6091 1461.19 56.4 1463.4 56.4Z" fill="white"/>
<path d="M98.7 26.6C100.026 26.6 101.1 25.5255 101.1 24.2C101.1 22.8745 100.026 21.8 98.7 21.8C97.3746 21.8 96.3 22.8745 96.3 24.2C96.3 25.5255 97.3746 26.6 98.7 26.6Z" fill="white"/>
<path d="M355.4 112.9C360.978 112.9 365.5 108.378 365.5 102.8C365.5 97.2219 360.978 92.7 355.4 92.7C349.822 92.7 345.3 97.2219 345.3 102.8C345.3 108.378 349.822 112.9 355.4 112.9Z" fill="white"/>
<path d="M507.8 67.7C513.378 67.7 517.9 63.1781 517.9 57.6C517.9 52.0219 513.378 47.5 507.8 47.5C502.222 47.5 497.7 52.0219 497.7 57.6C497.7 63.1781 502.222 67.7 507.8 67.7Z" fill="white"/>
<path d="M671.4 158.8C676.978 158.8 681.5 154.278 681.5 148.7C681.5 143.122 676.978 138.6 671.4 138.6C665.822 138.6 661.3 143.122 661.3 148.7C661.3 154.278 665.822 158.8 671.4 158.8Z" fill="white"/>
<path d="M961.6 55.6C967.178 55.6 971.7 51.0781 971.7 45.5C971.7 39.9219 967.178 35.4 961.6 35.4C956.022 35.4 951.5 39.9219 951.5 45.5C951.5 51.0781 956.022 55.6 961.6 55.6Z" fill="white"/>
<path d="M1388 23.4C1393.58 23.4 1398.1 18.8781 1398.1 13.3C1398.1 7.72193 1393.58 3.2 1388 3.2C1382.42 3.2 1377.9 7.72193 1377.9 13.3C1377.9 18.8781 1382.42 23.4 1388 23.4Z" fill="white"/>
<path d="M1221.1 242.7C1236.9 242.7 1249.7 230.567 1249.7 215.6C1249.7 200.633 1236.9 188.5 1221.1 188.5C1205.3 188.5 1192.5 200.633 1192.5 215.6C1192.5 230.567 1205.3 242.7 1221.1 242.7Z" fill="white"/>
<path d="M787.1 109.6C788.426 109.6 789.5 108.525 789.5 107.2C789.5 105.875 788.426 104.8 787.1 104.8C785.775 104.8 784.7 105.875 784.7 107.2C784.7 108.525 785.775 109.6 787.1 109.6Z" fill="white"/>
<path d="M1.90015 215.2V117.7C1.90015 117.7 192.1 -66.9 290.5 187.8C388.9 442.5 450.1 103.2 492.8 134.5C564.8 187.3 600 391.8 754 267.4C908 143 963.6 26.2 1099.8 219.2C1236 412.2 1306.2 135.4 1364.2 150.6C1422.2 165.8 1427.9 -148.2 1593.9 357.9L1573.7 358.7L1.90015 352.3V215.2Z" fill="white"/>
<path d="M1.80005 452.7V158C1.80005 158 213.8 -67.7 312.1 174.9C410.4 417.5 445.9 126.5 519.3 174.9C592.7 223.3 662.8 341.8 816.7 223.3C970.6 104.8 1013.4 57.2 1149.6 241C1285.8 424.8 1314 125.7 1372.1 140.2C1430.1 154.7 1448.7 -64.6 1614.7 417.5V467" fill="#C098D8"/>
<rect x="2" y="417" width="1613" height="50" fill="#C098D8"/>
</svg>
