<svg width="965" height="262" viewBox="0 0 965 262" fill="none" xmlns="http://www.w3.org/2000/svg">
<path d="M0 107.295V52.5536C0 52.5536 129.172 -51.6481 187.755 92.8897C246.339 237.428 282.833 44.8705 308.283 62.6376C351.212 92.6016 372.149 208.616 463.866 138.028C555.582 67.4395 588.715 1.17304 669.868 110.657C751.02 220.141 792.797 63.1178 827.371 71.7613C861.945 80.4047 861.945 -80.0274 960.864 207.175V222.35" fill="white"/>
<path d="M1.8811 253.364V77.8058C1.8811 77.8058 128.172 -56.648 186.755 87.8898C245.338 232.428 266.467 59.0783 310.164 87.8898C353.862 116.701 395.639 187.29 487.355 116.701C579.072 46.1131 604.522 17.7818 685.675 127.266C766.827 236.749 783.634 58.5981 818.208 67.2416C852.781 75.885 863.826 -54.7752 962.745 232.428V261.863" fill="#C098D8"/>
<path d="M2.12122 66.4168V58.8778C2.12122 58.8778 128.412 -75.576 186.995 68.9618C245.579 213.5 266.707 40.1503 310.405 68.9618C354.102 97.7734 395.879 168.362 487.595 97.7734C579.312 27.1851 604.762 -1.14621 685.915 108.338C767.067 217.821 783.874 39.6701 818.448 48.3136C853.022 56.957 864.066 -73.7032 962.986 213.5V223.392" stroke="white" stroke-width="3" stroke-miterlimit="10"/>
</svg>
