<?xml version="1.0" encoding="utf-8"?>
<!-- Generator: Adobe Illustrator 23.0.2, SVG Export Plug-In . SVG Version: 6.00 Build 0)  -->
<svg version="1.1" id="Layer_1" xmlns="http://www.w3.org/2000/svg" xmlns:xlink="http://www.w3.org/1999/xlink" x="0px" y="0px"
	 viewBox="0 0 2041 603" style="enable-background:new 0 0 2041 603;" xml:space="preserve">
<style type="text/css">
	.st0{fill:none;stroke:#FFFFFF;stroke-width:3;stroke-miterlimit:10;}
	.st1{fill:none;stroke:#FFFFFF;stroke-miterlimit:10;}
	.st2{fill:#FFFFFF;}
</style>
<g>
	<path class="st0" d="M25.5,285.15V269.5c0,0,263-280,385,21s166-60,257,0s178,207,369,60s244-206,413,22s204-143,276-125
		s95-254.09,301,343.96v20.63"/>
	<circle class="st0" cx="445.5" cy="302.5" r="5"/>
	<circle class="st0" cx="952.5" cy="328.5" r="5"/>
	<circle class="st0" cx="1541.5" cy="247.5" r="5"/>
	<circle class="st0" cx="1312.5" cy="203.5" r="5"/>
	<circle class="st1" cx="563.5" cy="216.5" r="5"/>
	<circle class="st1" cx="369.5" cy="158.5" r="5"/>
	<circle class="st1" cx="809.5" cy="351.5" r="5"/>
	<circle class="st1" cx="1415.5" cy="178.5" r="5"/>
	<circle class="st1" cx="1660.5" cy="171.5" r="5"/>
	<circle class="st2" cx="548.5" cy="328.5" r="5"/>
	<circle class="st2" cx="281" cy="112" r="5"/>
	<circle class="st2" cx="726" cy="269" r="5"/>
	<circle class="st2" cx="1480" cy="357" r="5"/>
	<circle class="st2" cx="1440" cy="292" r="5"/>
	<circle class="st2" cx="1615" cy="287" r="5"/>
	<circle class="st2" cx="1865" cy="172" r="5"/>
	<circle class="st2" cx="172" cy="137" r="3"/>
	<g>
		<circle class="st2" cx="490.5" cy="234.5" r="12.48"/>
	</g>
	<g>
		<circle class="st2" cx="679.5" cy="178.5" r="12.48"/>
	</g>
	<g>
		<circle class="st2" cx="882.5" cy="291.5" r="12.48"/>
	</g>
	<g>
		<circle class="st2" cx="1242.5" cy="163.5" r="12.48"/>
	</g>
	<g>
		<circle class="st2" cx="1771.5" cy="123.5" r="12.48"/>
	</g>
	<g>
		<ellipse class="st2" cx="1564.5" cy="374.5" rx="35.52" ry="33.6"/>
	</g>
	<circle class="st2" cx="1026" cy="240" r="3"/>
</g>
</svg>
